<svg width="147" height="119" viewBox="0 0 147 119" fill="none" xmlns="http://www.w3.org/2000/svg">
<path fill-rule="evenodd" clip-rule="evenodd" d="M54.0525 114.885C54.0525 114.398 54.7725 113.918 54.5325 114.758C54.4125 115.605 54.0525 115.125 54.0525 114.885ZM105.105 113.197L98.6175 113.557C98.9775 113.078 98.2575 113.078 99.8175 112.717C100.418 112.598 101.377 112.598 102.217 112.478C104.145 112.117 104.745 111.158 105.105 113.197ZM35.55 109.838L37.9575 108.99C37.9575 109.11 35.91 111.877 35.55 109.838ZM66.18 106.35C66.18 105.87 66.7875 105.27 66.6675 106.23C66.4275 107.19 66.18 107.07 66.18 106.35ZM44.325 106.35C46.005 106.35 45.405 106.35 46.965 106.71C47.085 106.83 47.205 106.83 47.445 106.83C47.565 106.95 48.045 107.07 48.165 107.07C49.125 107.31 48.525 107.07 49.005 107.31C47.925 108.03 47.805 107.67 46.485 107.19L45.645 106.95C45.525 106.83 45.405 106.83 45.285 106.83L44.325 106.35ZM39.3975 105.87C39.9975 105.27 40.7175 104.55 42.2775 105.27C42.2775 105.27 41.1975 106.71 39.3975 105.87ZM33.99 96.255C37.4775 95.295 59.22 99.1425 60.9 100.223L61.02 102.863C54.4125 102.863 55.9725 102.502 51.8925 103.943C48.765 105.03 51.6525 103.582 48.645 103.703L39.2775 104.55C36.5175 105.27 40.2375 104.55 37.4775 105.39C33.27 106.47 33.75 98.535 33.99 96.255ZM106.305 98.7825C106.305 97.575 107.625 98.7825 107.025 98.9025C105.945 99.1425 106.305 99.2625 106.305 98.7825ZM68.2275 92.5275C72.6675 91.3275 77.235 89.5275 82.1625 88.0875C91.29 85.44 87.6825 86.4 98.7375 86.88L104.025 109.598C100.537 109.598 99.9375 108.99 99.2175 107.55C97.4175 108.15 99.2175 108.63 93.69 108.15L95.01 107.19C91.77 106.35 87.6825 106.47 85.5225 105.87C79.995 104.07 75.075 105.15 71.9475 104.43C70.6275 104.19 70.3875 104.91 69.7875 101.303C69.3075 98.295 68.3475 95.535 68.2275 92.5275ZM42.5175 92.6475C45.165 91.4475 55.8525 87.36 58.8525 87L60.18 95.535C59.22 95.535 57.2925 95.175 56.4525 95.295L55.6125 95.535C54.7725 95.655 55.2525 96.615 54.8925 95.055C51.045 93.975 45.405 94.335 42.5175 92.6475ZM36.15 91.8075C38.3175 91.8075 40.3575 91.6875 41.0775 93.0075C40.1175 92.7675 39.8775 92.7675 38.6775 92.6475C36.8775 92.5275 37.7175 92.8875 36.15 91.8075ZM66.7875 87.8475L66.6675 86.28H72.4275C72.1875 86.4 72.1875 86.64 71.3475 87C69.4275 87.72 68.2275 88.2075 66.7875 87.8475ZM59.1 79.4325C59.34 78.4725 59.58 77.9925 59.94 77.1525L60.3 77.6325C60.66 78.3525 60.54 78.1125 60.66 78.5925C59.82 79.0725 60.06 78.7125 59.1 79.4325ZM101.738 76.065C102.098 76.785 102.217 75.105 102.098 77.0325C102.098 78.2325 102.098 77.5125 101.738 78.1125C100.897 76.905 100.897 77.2725 101.738 76.065ZM64.86 72.105L77.475 68.0175C80.955 66.9375 90.69 63.21 93.09 63.09C92.61 64.53 93.93 69.0975 94.41 70.7775C95.01 73.425 95.97 76.425 96.4575 78.3525L88.6425 81.2325C86.4825 82.44 88.0425 81.4725 87.9225 81.9525L88.2825 82.8C84.6825 83.16 87.9225 82.3125 85.2825 82.3125C83.9625 82.3125 83.1225 82.92 81.5625 83.04L68.3475 82.44C66.06 82.3125 66.3 82.56 65.94 80.6325C65.46 78.7125 64.74 73.905 64.86 72.105ZM29.31 70.6575C36.9975 70.1775 47.805 72.825 56.2125 73.185C57.1725 76.185 57.7725 80.2725 57.8925 83.16C50.685 84.96 37.1175 91.2075 33.27 91.0875L29.31 70.6575ZM98.8575 66.8175L99.2175 69.5775C98.2575 68.7375 98.4975 70.1775 98.2575 68.4975C97.6575 65.25 98.1375 67.7775 98.8575 66.8175ZM46.365 68.4975C46.365 67.7775 47.085 67.8975 46.965 68.4975C46.845 68.7375 46.365 70.1775 46.365 68.4975ZM36.7575 66.9375V64.17C37.2375 64.53 36.8775 65.25 39.1575 66.5775C41.1975 67.6575 41.3175 66.6975 42.3975 68.6175C39.9975 68.0175 38.5575 66.9375 38.3175 66.8175C37.7175 66.5775 36.9975 66.3375 36.7575 66.9375ZM23.7825 60.5625C25.8225 60.93 24.8625 59.9625 24.9825 61.77L24.2625 60.93C24.1425 60.93 24.0225 60.81 24.0225 60.6825L23.7825 60.5625ZM23.0625 7.57498L21.7425 6.24751C21.7425 6.24751 21.6225 6.00751 21.6225 5.88748C19.695 6.61501 21.255 6.24751 19.575 6.61501C18.495 6.85501 18.135 6.61501 17.175 7.09502C15.975 7.69501 15.135 9.01501 14.415 9.97499C15.495 12.3825 14.655 10.695 16.095 12.0225C17.415 13.2225 16.935 12.2625 16.935 14.5425L15.495 12.5025C15.015 13.1025 15.375 12.0225 14.775 13.9425C14.175 10.815 13.5675 13.9425 13.2075 10.335C12.0075 10.695 11.8875 10.815 11.6475 11.055C12.1275 10.215 12.4875 9.61501 12.3675 8.77501C9.36749 7.69501 10.5675 11.175 11.0475 13.5825C11.2875 15.1425 12.4875 16.8225 11.5275 18.51C10.3275 16.7025 11.7675 15.2625 9.4875 14.5425C9.7275 16.2225 10.2075 16.8225 10.6875 18.51C9.00751 17.4225 8.8875 15.6225 8.28749 13.7025C7.92751 12.5025 8.28749 11.655 8.28749 10.935C8.40749 10.095 7.92751 9.25502 7.08751 8.77501C6.7275 12.6225 11.0475 27.9975 12.3675 32.925C13.3275 36.5325 14.295 40.62 15.615 44.22C16.695 47.4675 18.495 52.995 19.095 56.0025C19.935 59.9625 20.775 63.33 21.8625 67.7775L27.6225 99.2625C27.9825 101.543 28.2225 103.822 28.5825 105.87C26.1825 106.23 26.5425 106.83 23.7825 106.35C21.6225 105.99 20.175 106.23 18.015 105.99L12.7275 107.91C12.7275 107.91 12.6075 108.03 12.4875 108.03C11.5275 107.55 11.7675 108.27 11.5275 106.83L10.6875 107.43C10.5675 107.43 10.4475 107.55 10.3275 107.55C10.2075 107.55 10.0875 107.67 9.96751 107.67C9.8475 107.67 8.6475 107.19 7.92751 107.07C4.08 108.87 8.28749 106.83 4.43999 107.79C1.92 108.27 1.43999 107.91 0 109.35C1.67999 110.678 4.67999 110.078 6.47999 111.277C8.6475 110.557 6.24001 111.037 8.5275 110.318C9.4875 111.037 9.12749 110.678 9.96751 111.637C10.0875 111.518 10.0875 111.277 10.0875 111.398L11.0475 110.318C12.4875 110.557 12.7275 110.318 13.5675 110.318C16.215 110.557 14.655 110.318 15.495 111.398L13.4475 112.117C15.855 113.078 15.855 112.838 18.495 113.078L18.975 112.717C19.695 111.998 18.735 112.598 19.695 111.998C20.175 111.758 21.015 111.398 21.6225 111.398L26.0625 110.918C24.1425 112.238 22.5825 112.238 22.1025 112.478L23.9025 113.678C25.5825 112.957 25.3425 112.717 27.1425 112.357C28.9425 111.998 29.07 111.758 29.43 112.717L25.9425 112.838C26.1825 113.557 25.9425 113.197 26.4225 114.037L26.9025 115.005C26.9025 115.125 27.0225 115.245 27.1425 115.365C28.4625 114.398 27.1425 115.605 27.8625 114.637L32.67 114.398C34.71 113.678 33.87 114.037 35.31 114.398C38.6775 115.125 39.5175 112.598 40.2375 115.365L41.4375 113.557C42.0375 115.485 44.565 115.125 45.165 115.605C45.285 115.605 45.405 115.725 45.405 115.725C45.525 115.845 45.525 115.965 45.645 115.965C46.365 116.685 54.7725 116.565 55.9725 116.805C57.0525 117.045 58.7325 117.405 59.94 117.525C62.22 117.765 63.66 117.405 64.98 117.405C68.8275 117.405 75.315 118.725 79.515 118.365C82.5225 118.005 80.595 117.645 82.8825 116.205C82.8825 116.445 82.7625 116.805 82.8825 116.925C83.3625 118.125 82.8825 117.285 83.6025 118.005C85.4025 118.125 86.3625 118.125 87.9225 117.405L89.25 116.925C87.5625 114.518 88.0425 116.565 85.1625 116.805C86.6025 115.845 85.7625 116.325 86.3625 115.365C85.4025 115.125 84.6825 114.885 84.3225 114.885C85.6425 113.078 87.6825 112.838 90.09 112.838C92.85 112.717 95.37 112.357 97.6575 113.318C96.09 114.398 93.45 113.678 91.29 114.158L91.53 117.405C93.33 117.525 94.89 117.045 95.97 115.725C97.0575 114.158 95.61 116.085 96.2175 114.637C97.2975 114.885 96.9375 115.005 97.6575 115.965C101.258 115.485 100.897 116.325 103.905 116.085L103.785 115.365C103.297 114.037 103.905 115.845 103.418 114.637C105.465 114.518 104.745 114.277 105.465 116.085C109.905 115.725 113.873 116.805 118.312 116.685C120.72 116.565 119.88 117.045 121.32 115.365C119.88 114.637 118.8 113.318 116.873 113.557C115.553 113.678 114.592 115.125 111.713 115.485L115.553 112.717C113.033 112.238 111.473 111.277 110.745 108.51C110.025 105.39 109.065 103.703 108.465 101.422C107.985 99.5025 107.745 96.255 107.145 93.735L98.4975 55.4025C99.9375 54.075 100.178 55.155 99.9375 52.635C97.7775 51.795 96.5775 52.635 94.65 53.355C89.37 55.275 83.8425 56.0025 78.675 58.0425C73.3875 60.2025 68.5875 61.41 63.3 62.85C60.3 63.81 60.18 63.09 58.6125 65.25C53.0925 64.77 52.4925 63.93 46.965 63.93C46.125 63.93 43.8375 63.57 42.8775 63.45C39.5175 62.73 34.11 62.61 30.99 61.53C29.79 61.05 31.59 61.53 30.03 61.05C28.7025 60.6825 29.07 60.93 27.6225 61.05L29.55 59.4825L27.3825 59.6025C26.5425 57.3225 21.9825 43.14 22.1025 41.82C19.695 43.38 21.8625 42.3 21.015 44.1C18.135 41.1 17.655 38.4525 16.095 34.2525C15.495 32.565 14.895 30.645 14.535 28.365C14.295 27.1575 14.175 25.7175 13.9275 24.8775C13.5675 23.5575 13.3275 23.0775 13.0875 21.75L14.295 22.59C14.415 22.71 14.535 22.83 14.655 22.83L16.095 18.39L24.9825 15.5025C23.3025 11.895 26.6625 14.9025 23.0625 8.535C23.0625 8.41502 23.3025 8.17502 23.3025 8.295L24.5025 6.61501C24.5025 4.56752 24.5025 6.36749 24.1425 5.64752C23.7825 7.215 25.1025 6.12749 23.0625 7.57498ZM51.7725 33.405C53.3325 35.0925 52.6125 33.8925 52.9725 36.6525C56.9325 35.8125 53.6925 36.4125 56.9325 37.6125L56.5725 39.78C55.6125 40.14 56.6925 40.26 54.8925 39.18C54.4125 41.46 54.7725 41.22 53.6925 42.54C51.4125 39.42 53.5725 40.86 52.3725 37.7325C51.5325 35.6925 50.205 34.6125 51.7725 33.405ZM53.2125 33.525C56.2125 33.8925 54.6525 33.045 55.6125 34.7325C55.4925 34.8525 56.2125 36.4125 54.0525 35.0925C53.2125 34.6125 53.3325 34.0125 53.2125 33.525ZM31.23 2.28749C34.23 3.00751 31.95 3.36749 34.95 3.6075C34.83 3.96748 34.71 7.09502 34.83 7.81499C35.43 10.815 36.7575 11.535 37.3575 12.2625C34.95 12.0225 35.31 11.775 33.99 13.2225C37.5975 13.2225 41.4375 12.2625 44.805 11.535L47.685 23.9175C48.405 25.8375 49.005 25.7175 49.365 27.2775C49.605 28.845 49.125 30.285 49.485 32.205L52.7325 44.1C52.7325 41.94 52.4925 43.14 53.9325 42.66C53.2125 45.0675 54.1725 43.98 54.8925 45.7875C53.2125 45.0675 53.9325 45.1875 52.9725 45.7875L54.1725 51.915C50.565 52.995 53.0925 53.235 50.325 53.355L51.045 54.795C51.045 54.915 51.045 55.035 51.045 55.155C46.365 56.3625 47.325 55.275 45.765 56.9625C48.645 57.9225 45.765 58.2825 52.8525 57.8025C53.2125 58.4025 53.4525 57.8025 52.9725 59.7225L55.7325 60.81C55.6125 61.05 52.9725 64.53 57.4125 63.81C60.42 63.21 59.7 62.97 60.06 62.49C59.1 60.0825 60.3 62.25 58.6125 61.41C59.34 60.6825 58.7325 61.89 59.34 60.3225L59.46 59.6025C59.46 59.6025 59.46 59.4825 59.46 59.3625C59.58 59.2425 59.58 59.0025 59.7 59.0025L59.82 58.1625C59.94 57.3225 59.46 57.6825 60.42 56.3625C59.94 56.1225 59.7 56.0025 59.34 55.5225C59.22 55.4025 59.22 55.275 59.1 55.155L61.14 50.955L53.3325 28.2375C53.2125 28.365 52.8525 29.085 52.8525 29.085C50.085 26.7975 50.085 21.99 50.205 18.63L51.8925 16.1025L50.325 14.5425C50.925 12.7425 51.045 13.1025 50.805 10.575L52.2525 9.61501C52.2525 7.57498 51.7725 5.5275 51.4125 3.8475C50.805 1.08 50.685 0.480011 47.565 0.359985C47.925 1.6875 47.565 1.08 48.405 1.92751C49.485 3.24751 48.285 1.08 49.245 2.88748C47.205 2.16751 48.765 2.28749 45.765 1.80748C44.805 0.11998 45.525 1.32751 45.285 0C43.965 2.5275 35.91 0.11998 31.23 2.28749ZM124.56 112.357C123.84 110.318 125.52 111.758 121.08 110.557C119.88 110.197 120.72 109.478 118.68 110.197C117.113 110.557 118.8 110.918 115.672 110.918C116.512 109.35 115.553 110.438 117.232 109.478C112.312 110.197 114.713 109.717 113.033 109.11H111.592C112.312 111.398 114.953 112.357 117.232 113.078C119.52 113.678 118.432 114.277 120.84 113.918C120.96 113.918 122.28 113.438 122.76 113.318L124.56 112.357ZM125.52 111.398C126.127 111.877 124.08 112.717 128.647 111.277C126.967 113.197 127.088 112.117 126.607 113.678C128.287 113.438 126.727 113.318 128.768 113.197C129.367 113.197 130.928 113.078 131.168 113.197C132.008 113.438 132.367 114.158 133.447 114.277C135.495 114.398 135.615 113.197 135.735 112.838L134.895 112.478C133.328 111.758 133.695 112.238 132.967 110.918L129.127 111.518C129.607 111.158 129.607 111.158 130.328 110.797C131.287 110.318 130.447 110.797 131.168 110.318C129.848 109.717 126.727 110.678 125.52 111.398ZM137.175 112.838C137.175 113.197 136.095 114.277 141.015 114.885C142.943 115.125 145.342 114.885 146.783 113.678C144.262 113.318 139.455 111.758 137.175 112.838ZM18.615 39.9C20.415 39.9 20.535 39.66 21.8625 39.0525C21.135 37.7325 21.7425 39.18 20.895 37.9725C20.295 36.8925 20.655 36.4125 19.815 35.5725L17.175 33.8925C17.175 35.3325 17.655 38.3325 18.615 39.9ZM32.19 13.5825C30.99 12.3825 30.87 12.9825 29.55 11.655L29.19 11.055C29.19 11.055 27.8625 10.695 28.8225 12.5025L30.75 13.8225C33.27 14.9025 30.99 14.1825 32.19 13.5825ZM28.3425 10.575C30.15 9.73499 29.79 9.13499 28.5825 7.93501C28.2225 8.535 28.1025 7.69501 28.1025 9.13499C28.1025 10.695 28.3425 10.455 28.3425 10.575ZM17.055 26.7975C16.815 23.1975 17.415 25.5975 16.095 24.3975C15.855 24.8775 14.535 23.4375 15.855 25.9575C16.575 27.2775 15.495 25.9575 17.055 26.7975ZM60.42 55.4025C61.74 56.1225 63.42 56.4825 64.74 55.8825C63.78 55.275 61.26 54.915 60.42 55.4025ZM42.1575 59.4825C42.6375 59.7225 41.4375 59.9625 43.4775 59.6025C43.2375 58.1625 43.4775 58.6425 42.2775 57.9225C41.9175 58.5225 41.1975 57.9225 42.1575 59.4825ZM132.607 116.085C134.175 115.845 133.695 116.205 134.655 115.365C134.535 115.245 135.735 114.398 133.695 115.125C132.008 115.725 132.967 115.245 132.607 116.085ZM129.967 114.398C130.688 114.758 129.607 114.885 131.047 114.758C131.168 114.758 131.287 114.758 131.408 114.758L132.008 114.398C131.647 114.277 131.047 114.037 130.807 114.037C129.967 114.158 130.447 114.158 129.967 114.398Z" fill="#1A1A18"/>
</svg>
